<svg width="205" height="63" viewBox="0 0 205 63" fill="none" xmlns="http://www.w3.org/2000/svg">
<path d="M19.5665 34.9998C14.3624 34.9998 9.93938 33.3116 6.29744 29.932C2.65244 26.5556 0.833008 22.4125 0.833008 17.4999C0.833008 12.5873 2.65244 8.44424 6.29438 5.06776C9.93632 1.68824 14.3624 0 19.5665 0C24.7705 0 28.8382 1.6852 32.3087 5.05559L27.8428 9.24121C25.3587 6.8868 22.6019 5.7096 19.5634 5.7096C16.2584 5.7096 13.4435 6.86551 11.1156 9.17429C8.79075 11.4831 7.6268 14.2603 7.6268 17.4999C7.6268 20.7395 8.79075 23.5137 11.1156 25.8255C13.4404 28.1343 16.2553 29.2902 19.5634 29.2902C22.0751 29.2902 24.4673 28.4415 26.7431 26.7411V20.268H19.2939V14.6466H33.1571V28.9647C31.497 30.8689 29.4876 32.3503 27.1321 33.4119C24.7767 34.4735 22.2527 35.0028 19.5603 35.0028L19.5665 34.9998Z" fill="#262626"/>
<path d="M58.8038 35.0003V30.7661H58.715C57.8635 32.1623 56.6842 33.3486 55.1803 34.319C53.6763 35.2893 51.8998 35.7791 49.8506 35.7791C45.933 35.7791 42.6004 34.4376 39.856 31.7577C37.1115 29.0778 35.7393 25.747 35.7393 21.7652C35.7393 17.7833 37.1115 14.4981 39.856 11.8182C42.6004 9.13834 45.933 7.79688 49.8506 7.79688C53.4711 7.79688 56.4239 9.33302 58.7119 12.4084H58.8008V8.57559H65.3281V34.9973H58.8008L58.8038 35.0003ZM58.8038 21.7682C58.8038 19.5415 58.0136 17.6313 56.4361 16.0434C54.8587 14.4555 52.9412 13.6586 50.6807 13.6586C48.4202 13.6586 46.518 14.4586 44.9253 16.0525C43.3325 17.6495 42.5361 19.5537 42.5361 21.7682C42.5361 23.9827 43.3325 25.9538 44.9253 27.5508C46.518 29.1478 48.4355 29.9448 50.6807 29.9448C52.9259 29.9448 54.877 29.1478 56.4453 27.5508C58.0166 25.9538 58.8008 24.0283 58.8008 21.7682H58.8038Z" fill="#262626"/>
<path d="M75.519 35.0003H68.9917V8.57864H75.519V12.454H75.6078C77.2986 9.35127 79.4887 7.79688 82.1811 7.79688C83.9913 7.79688 85.5045 8.26837 86.7236 9.21135C87.9426 10.1543 88.8585 11.362 89.4711 12.8312C90.0531 11.5232 91.0455 10.3581 92.4422 9.33302C93.839 8.30791 95.3919 7.79688 97.098 7.79688C100.195 7.79688 102.639 8.75507 104.434 10.6714C106.229 12.5878 107.126 15.1643 107.126 18.4039V35.0003H100.599V18.2913C100.599 16.9833 100.155 15.8852 99.2636 14.9939C98.3722 14.1027 97.2695 13.6586 95.9555 13.6586C94.6415 13.6586 93.5725 14.1027 92.6689 14.9939C91.7622 15.8852 91.312 16.9833 91.312 18.2913V35.0003H84.7847V18.2913C84.7847 16.9833 84.3436 15.8852 83.4614 14.9939C82.5793 14.1027 81.4796 13.6586 80.1625 13.6586C78.8454 13.6586 77.7795 14.1027 76.8759 14.9939C75.9693 15.8852 75.519 16.9833 75.519 18.2913V35.0003Z" fill="#262626"/>
<path d="M111.329 6.52786C110.572 5.77043 110.195 4.87308 110.195 3.83276C110.195 2.79244 110.572 1.89509 111.329 1.13766C112.082 0.380234 112.995 0 114.067 0C115.139 0 116.046 0.380234 116.793 1.13766C117.54 1.89509 117.914 2.79548 117.914 3.83276C117.914 4.87004 117.54 5.77043 116.793 6.52786C116.046 7.28528 115.136 7.66552 114.067 7.66552C112.998 7.66552 112.085 7.28528 111.329 6.52786ZM110.79 8.57808H117.317V34.9998H110.79V8.57808Z" fill="#262626"/>
<path d="M119.36 13.6154V8.43816H121.804V0H128.332V8.43816H132.862V13.6154H128.332V27.4286C128.332 27.967 128.552 28.4263 128.993 28.8096C129.434 29.1929 129.946 29.3845 130.531 29.3845C131.294 29.3845 131.863 29.2628 132.237 29.0134L133.514 34.0173C132.197 34.6713 130.589 34.9967 128.69 34.9967C126.641 34.9967 124.981 34.364 123.709 33.1047C122.438 31.8423 121.801 30.1967 121.801 28.1647V13.6093H119.357L119.36 13.6154Z" fill="#262626"/>
<path d="M163.176 21.1715C163.176 25.0712 161.7 28.3503 158.744 31.0089C155.788 33.6675 152.293 34.9999 148.256 34.9999C144.219 34.9999 140.755 33.6706 137.781 31.0089C134.804 28.3473 133.315 25.0681 133.315 21.1715C133.315 17.2749 134.801 14.0383 137.769 11.3767C140.737 8.71504 144.229 7.38574 148.244 7.38574C152.26 7.38574 155.752 8.71504 158.723 11.3767C161.691 14.0383 163.176 17.3022 163.176 21.1715ZM156.38 21.1715C156.38 18.9722 155.589 17.0893 154.012 15.5228C152.434 13.9531 150.514 13.1714 148.256 13.1714C145.999 13.1714 144.094 13.9592 142.501 15.5349C140.908 17.1106 140.112 18.9905 140.112 21.1746C140.112 23.3586 140.908 25.3054 142.501 26.8811C144.094 28.4568 146.011 29.2446 148.256 29.2446C150.502 29.2446 152.453 28.4568 154.021 26.8811C155.592 25.3054 156.376 23.4042 156.376 21.1746L156.38 21.1715Z" fill="#262626"/>
<path d="M194.879 21.1715C194.879 25.0712 193.403 28.3503 190.447 31.0089C187.491 33.6675 183.996 34.9999 179.959 34.9999C175.922 34.9999 172.458 33.6706 169.483 31.0089C166.506 28.3473 165.018 25.0681 165.018 21.1715C165.018 17.2749 166.503 14.0383 169.471 11.3767C172.439 8.71504 175.931 7.38574 179.947 7.38574C183.962 7.38574 187.454 8.71504 190.425 11.3767C193.393 14.0383 194.879 17.3022 194.879 21.1715ZM188.079 21.1715C188.079 18.9722 187.289 17.0893 185.711 15.5228C184.134 13.9531 182.213 13.1714 179.956 13.1714C177.698 13.1714 175.793 13.9592 174.201 15.5349C172.608 17.1106 171.811 18.9905 171.811 21.1746C171.811 23.3586 172.608 25.3054 174.201 26.8811C175.793 28.4568 177.711 29.2446 179.956 29.2446C182.201 29.2446 184.152 28.4568 185.721 26.8811C187.292 25.3054 188.076 23.4042 188.076 21.1746L188.079 21.1715Z" fill="#262626"/>
<path d="M197.639 34.9998V0H204.166V34.9998H197.639Z" fill="#262626"/>
<path d="M136.042 43.629C136.349 42.259 137.565 41.2852 138.97 41.2852H200.419C202.341 41.2852 203.767 43.0663 203.346 44.9413L199.992 59.9081C199.685 61.2781 198.469 62.252 197.065 62.252H135.615C133.694 62.252 132.267 60.4708 132.688 58.5958L136.042 43.629Z" fill="#B7E556"/>
<path d="M161.363 53.1143C161.363 53.915 161.087 54.5576 160.537 55.042C159.986 55.5264 159.302 55.7686 158.486 55.7686H154.238V46.7686H158.281C159.05 46.7686 159.689 46.9893 160.197 47.4307C160.705 47.8682 160.958 48.4639 160.958 49.2178C160.958 49.5537 160.89 49.8486 160.753 50.1025C160.617 50.3525 160.48 50.5303 160.343 50.6357C160.207 50.7373 160.035 50.8447 159.828 50.958C160.851 51.3564 161.363 52.0752 161.363 53.1143ZM159.271 53.8994C159.482 53.6572 159.587 53.3682 159.587 53.0322C159.587 52.6963 159.482 52.4092 159.271 52.1709C159.06 51.9287 158.798 51.8076 158.486 51.8076H155.943V54.2568H158.486C158.798 54.2568 159.06 54.1377 159.271 53.8994ZM155.943 48.2803V50.3545H158.281C158.527 50.3545 158.738 50.251 158.914 50.0439C159.093 49.8369 159.183 49.5967 159.183 49.3232C159.183 49.042 159.095 48.7979 158.919 48.5908C158.744 48.3838 158.531 48.2803 158.281 48.2803H155.943ZM170.813 52.2881C170.813 52.5186 170.782 52.7744 170.719 53.0557H165.124C165.245 53.4697 165.491 53.8115 165.862 54.0811C166.233 54.3506 166.639 54.4854 167.081 54.4854C167.471 54.4854 167.846 54.3916 168.206 54.2041C168.569 54.0166 168.838 53.7744 169.014 53.4775L170.174 54.4971C169.823 54.9541 169.376 55.3154 168.833 55.5811C168.29 55.8428 167.706 55.9736 167.081 55.9736C166.026 55.9736 165.129 55.6201 164.391 54.9131C163.657 54.2021 163.29 53.3271 163.29 52.2881C163.29 51.249 163.657 50.3779 164.391 49.6748C165.129 48.9678 166.026 48.6143 167.081 48.6143C168.112 48.6143 168.991 48.9717 169.717 49.6865C170.448 50.3975 170.813 51.2646 170.813 52.2881ZM165.135 51.6143H168.991C168.885 51.165 168.657 50.7979 168.305 50.5127C167.954 50.2236 167.545 50.0791 167.081 50.0791C166.624 50.0791 166.211 50.2256 165.844 50.5186C165.477 50.8076 165.241 51.1729 165.135 51.6143ZM166.6 46.4111H167.585L168.786 47.9463H167.825L167.116 47.2607H167.057L166.36 47.9463H165.399L166.6 46.4111ZM172.552 50.2139V48.8193H173.191V47.249H174.896V48.8193H176.08V50.2139H174.896V53.9346C174.896 54.0791 174.953 54.2041 175.066 54.3096C175.183 54.4111 175.318 54.4619 175.47 54.4619C175.67 54.4619 175.818 54.4287 175.916 54.3623L176.25 55.71C175.906 55.8857 175.486 55.9736 174.99 55.9736C174.455 55.9736 174.021 55.8037 173.689 55.4639C173.357 55.124 173.191 54.6807 173.191 54.1338V50.2139H172.552ZM183.784 52.2881C183.784 51.7021 183.577 51.2002 183.163 50.7822C182.753 50.3643 182.253 50.1553 181.663 50.1553C181.077 50.1553 180.575 50.3662 180.157 50.7881C179.743 51.2061 179.536 51.7061 179.536 52.2881C179.536 52.8818 179.743 53.3896 180.157 53.8115C180.575 54.2295 181.077 54.4385 181.663 54.4385C182.256 54.4385 182.758 54.2295 183.169 53.8115C183.579 53.3896 183.784 52.8818 183.784 52.2881ZM183.784 55.7686V54.6553H183.76C183.538 55.0225 183.229 55.335 182.835 55.5928C182.444 55.8467 181.981 55.9736 181.446 55.9736C180.422 55.9736 179.551 55.6221 178.833 54.9189C178.118 54.2119 177.76 53.335 177.76 52.2881C177.76 51.249 178.118 50.3779 178.833 49.6748C179.551 48.9678 180.422 48.6143 181.446 48.6143C182.391 48.6143 183.163 49.0186 183.76 49.8271H183.784V48.8193H185.489V55.7686H183.784Z" fill="#262626"/>
</svg>
