<svg width="132" height="41" viewBox="0 0 132 41" fill="none" xmlns="http://www.w3.org/2000/svg">
<path d="M13.7677 22.9885C10.4901 22.9885 7.7045 21.9252 5.41078 19.7967C3.11513 17.6702 1.96924 15.0609 1.96924 11.9669C1.96924 8.87287 3.11513 6.26356 5.40885 4.13703C7.70257 2.00858 10.4901 0.945312 13.7677 0.945312C17.0453 0.945312 19.6072 2.00666 21.7928 4.12936L18.9802 6.7655C17.4157 5.28267 15.6795 4.54126 13.7658 4.54126C11.6843 4.54126 9.91141 5.26926 8.44528 6.72335C6.98108 8.17744 6.24802 9.92656 6.24802 11.9669C6.24802 14.0072 6.98108 15.7544 8.44528 17.2104C9.90948 18.6645 11.6823 19.3925 13.7658 19.3925C15.3477 19.3925 16.8543 18.858 18.2876 17.7871V13.7103H13.596V10.1699H22.3272V19.1875C21.2816 20.3868 20.0161 21.3198 18.5326 21.9884C17.0491 22.657 15.4596 22.9904 13.7639 22.9904L13.7677 22.9885Z" fill="#A9A9A9"/>
<path d="M38.4799 22.9884V20.3216H38.4239C37.8876 21.201 37.1449 21.9481 36.1977 22.5593C35.2505 23.1704 34.1316 23.4789 32.8411 23.4789C30.3737 23.4789 28.2748 22.634 26.5463 20.9462C24.8179 19.2584 23.9536 17.1606 23.9536 14.6528C23.9536 12.145 24.8179 10.076 26.5463 8.38815C28.2748 6.70033 30.3737 5.85547 32.8411 5.85547C35.1213 5.85547 36.9809 6.82295 38.422 8.75981H38.4779V6.34591H42.5889V22.9865H38.4779L38.4799 22.9884ZM38.4799 14.6547C38.4799 13.2524 37.9822 12.0492 36.9887 11.0492C35.9952 10.0491 34.7875 9.54721 33.3638 9.54721C31.9402 9.54721 30.7422 10.0511 29.739 11.0549C28.7359 12.0607 28.2343 13.26 28.2343 14.6547C28.2343 16.0494 28.7359 17.2908 29.739 18.2966C30.7422 19.3024 31.9498 19.8044 33.3638 19.8044C34.7779 19.8044 36.0067 19.3024 36.9944 18.2966C37.9841 17.2908 38.4779 16.0782 38.4779 14.6547H38.4799Z" fill="#A9A9A9"/>
<path d="M49.0069 22.9884H44.896V6.34783H49.0069V8.78855H49.0629C50.1278 6.83444 51.5071 5.85547 53.2028 5.85547C54.3429 5.85547 55.2959 6.15242 56.0637 6.74631C56.8314 7.34021 57.4082 8.10078 57.7941 9.02611C58.1606 8.20232 58.7856 7.46857 59.6653 6.82295C60.545 6.17732 61.5231 5.85547 62.5976 5.85547C64.5479 5.85547 66.0873 6.45894 67.2178 7.6659C68.3483 8.87285 68.9135 10.4955 68.9135 12.5358V22.9884H64.8026V12.465C64.8026 11.6412 64.5228 10.9496 63.9615 10.3882C63.4001 9.82691 62.7056 9.54721 61.878 9.54721C61.0504 9.54721 60.3772 9.82691 59.8081 10.3882C59.2371 10.9496 58.9535 11.6412 58.9535 12.465V22.9884H54.8425V12.465C54.8425 11.6412 54.5647 10.9496 54.0091 10.3882C53.4536 9.82691 52.761 9.54721 51.9315 9.54721C51.102 9.54721 50.4306 9.82691 49.8615 10.3882C49.2905 10.9496 49.0069 11.6412 49.0069 12.465V22.9884Z" fill="#A9A9A9"/>
<path d="M71.5604 5.05661C71.084 4.57958 70.8467 4.01442 70.8467 3.35921C70.8467 2.70401 71.084 2.13885 71.5604 1.66182C72.035 1.18479 72.6099 0.945312 73.2851 0.945312C73.9603 0.945312 74.5313 1.18479 75.002 1.66182C75.4727 2.13885 75.7081 2.70593 75.7081 3.35921C75.7081 4.0125 75.4727 4.57958 75.002 5.05661C74.5313 5.53364 73.9583 5.77312 73.2851 5.77312C72.6118 5.77312 72.0369 5.53364 71.5604 5.05661ZM71.2209 6.34785H75.3319V22.9884H71.2209V6.34785Z" fill="#A9A9A9"/>
<path d="M76.6181 9.52041V6.25973H78.1576V0.945312H82.2685V6.25973H85.1217V9.52041H82.2685V18.22C82.2685 18.5591 82.4074 18.8484 82.6852 19.0898C82.963 19.3312 83.2852 19.4519 83.6536 19.4519C84.134 19.4519 84.4928 19.3753 84.7281 19.2182L85.5326 22.3696C84.7031 22.7815 83.6903 22.9865 82.4942 22.9865C81.2037 22.9865 80.1581 22.588 79.3575 21.7949C78.5569 20.9999 78.1556 19.9634 78.1556 18.6837V9.51658H76.6162L76.6181 9.52041Z" fill="#A9A9A9"/>
<path d="M104.215 14.2791C104.215 16.7351 103.285 18.8003 101.423 20.4747C99.5616 22.1491 97.3605 22.9883 94.8179 22.9883C92.2754 22.9883 90.0935 22.1511 88.2204 20.4747C86.3453 18.7984 85.4077 16.7332 85.4077 14.2791C85.4077 11.8249 86.3433 9.78652 88.2127 8.1102C90.082 6.43388 92.2812 5.59668 94.8102 5.59668C97.3393 5.59668 99.5385 6.43388 101.41 8.1102C103.279 9.78652 104.215 11.8422 104.215 14.2791ZM99.934 14.2791C99.934 12.8939 99.4363 11.7081 98.4428 10.7214C97.4493 9.73288 96.2397 9.24052 94.8179 9.24052C93.3962 9.24052 92.1963 9.73671 91.1931 10.7291C90.19 11.7215 89.6884 12.9054 89.6884 14.281C89.6884 15.6565 90.19 16.8826 91.1931 17.875C92.1963 18.8674 93.4039 19.3636 94.8179 19.3636C96.232 19.3636 97.4608 18.8674 98.4485 17.875C99.4382 16.8826 99.932 15.6853 99.932 14.281L99.934 14.2791Z" fill="#A9A9A9"/>
<path d="M124.181 14.2791C124.181 16.7351 123.251 18.8003 121.39 20.4747C119.528 22.1491 117.327 22.9883 114.784 22.9883C112.242 22.9883 110.06 22.1511 108.187 20.4747C106.312 18.7984 105.374 16.7332 105.374 14.2791C105.374 11.8249 106.31 9.78652 108.179 8.1102C110.048 6.43388 112.247 5.59668 114.777 5.59668C117.306 5.59668 119.505 6.43388 121.376 8.1102C123.245 9.78652 124.181 11.8422 124.181 14.2791ZM119.898 14.2791C119.898 12.8939 119.401 11.7081 118.407 10.7214C117.414 9.73288 116.204 9.24052 114.782 9.24052C113.361 9.24052 112.161 9.73671 111.158 10.7291C110.154 11.7215 109.653 12.9054 109.653 14.281C109.653 15.6565 110.154 16.8826 111.158 17.875C112.161 18.8674 113.368 19.3636 114.782 19.3636C116.196 19.3636 117.425 18.8674 118.413 17.875C119.403 16.8826 119.896 15.6853 119.896 14.281L119.898 14.2791Z" fill="#A9A9A9"/>
<path d="M125.919 22.9884V0.945312H130.03V22.9884H125.919Z" fill="#A9A9A9"/>
<path d="M87.1254 28.4235C87.3188 27.5606 88.0848 26.9473 88.9691 26.9473H127.671C128.881 26.9473 129.779 28.0691 129.514 29.2499L127.401 38.6761C127.208 39.539 126.442 40.1523 125.558 40.1523H86.8564C85.6462 40.1523 84.748 39.0305 85.0127 37.8497L87.1254 28.4235Z" fill="#A9A9A9"/>
<path d="M103.073 34.4689C103.073 34.9733 102.9 35.378 102.553 35.683C102.206 35.9881 101.775 36.1406 101.261 36.1406H98.5857V30.4724H101.132C101.617 30.4724 102.019 30.6114 102.339 30.8894C102.659 31.1649 102.818 31.5401 102.818 32.0149C102.818 32.2265 102.775 32.4122 102.689 32.5721C102.603 32.7296 102.517 32.8415 102.431 32.9079C102.345 32.9719 102.237 33.0396 102.106 33.1109C102.751 33.3618 103.073 33.8145 103.073 34.4689ZM101.756 34.9634C101.889 34.8109 101.955 34.6288 101.955 34.4173C101.955 34.2057 101.889 34.0249 101.756 33.8748C101.623 33.7223 101.458 33.646 101.261 33.646H99.6596V35.1885H101.261C101.458 35.1885 101.623 35.1135 101.756 34.9634ZM99.6596 31.4244V32.7308H101.132C101.287 32.7308 101.42 32.6656 101.531 32.5352C101.644 32.4048 101.7 32.2535 101.7 32.0813C101.7 31.9042 101.645 31.7504 101.534 31.62C101.424 31.4896 101.289 31.4244 101.132 31.4244H99.6596ZM109.025 33.9486C109.025 34.0937 109.005 34.2549 108.966 34.432H105.442C105.518 34.6928 105.673 34.9081 105.907 35.0778C106.14 35.2476 106.396 35.3325 106.674 35.3325C106.92 35.3325 107.156 35.2734 107.383 35.1553C107.612 35.0372 107.781 34.8847 107.892 34.6977L108.623 35.3398C108.401 35.6277 108.12 35.8552 107.778 36.0225C107.436 36.1874 107.068 36.2698 106.674 36.2698C106.01 36.2698 105.445 36.0471 104.98 35.6018C104.518 35.1541 104.287 34.603 104.287 33.9486C104.287 33.2942 104.518 32.7456 104.98 32.3027C105.445 31.8574 106.01 31.6348 106.674 31.6348C107.324 31.6348 107.877 31.8599 108.335 32.3101C108.795 32.7579 109.025 33.304 109.025 33.9486ZM105.449 33.5242H107.877C107.811 33.2413 107.667 33.01 107.446 32.8304C107.224 32.6484 106.967 32.5574 106.674 32.5574C106.386 32.5574 106.127 32.6496 105.896 32.8341C105.664 33.0162 105.515 33.2462 105.449 33.5242ZM106.372 30.2472H106.992L107.748 31.2141H107.143L106.696 30.7823H106.659L106.22 31.2141H105.615L106.372 30.2472ZM110.12 32.6422V31.764H110.523V30.775H111.596V31.764H112.342V32.6422H111.596V34.9856C111.596 35.0766 111.632 35.1553 111.704 35.2217C111.777 35.2857 111.862 35.3177 111.958 35.3177C112.084 35.3177 112.177 35.2968 112.239 35.255L112.449 36.1037C112.232 36.2144 111.968 36.2698 111.656 36.2698C111.318 36.2698 111.045 36.1628 110.836 35.9487C110.627 35.7347 110.523 35.4555 110.523 35.111V32.6422H110.12ZM117.194 33.9486C117.194 33.5796 117.064 33.2634 116.803 33.0002C116.545 32.737 116.23 32.6053 115.858 32.6053C115.489 32.6053 115.173 32.7382 114.91 33.0039C114.649 33.2671 114.519 33.582 114.519 33.9486C114.519 34.3225 114.649 34.6424 114.91 34.9081C115.173 35.1713 115.489 35.3029 115.858 35.3029C116.232 35.3029 116.548 35.1713 116.807 34.9081C117.065 34.6424 117.194 34.3225 117.194 33.9486ZM117.194 36.1406V35.4395H117.179C117.039 35.6707 116.845 35.8675 116.596 36.0299C116.35 36.1898 116.059 36.2698 115.722 36.2698C115.077 36.2698 114.528 36.0484 114.076 35.6055C113.626 35.1602 113.4 34.6079 113.4 33.9486C113.4 33.2942 113.626 32.7456 114.076 32.3027C114.528 31.8574 115.077 31.6348 115.722 31.6348C116.317 31.6348 116.803 31.8894 117.179 32.3987H117.194V31.764H118.268V36.1406H117.194Z" fill="#262626"/>
</svg>
